<?xml version="1.0" encoding="UTF-8"?>
<svg id="Capa_1" data-name="Capa 1" xmlns="http://www.w3.org/2000/svg" viewBox="0 0 284.48 66.1">
  <defs>
    <style>
      .cls-1 {
        font-family: SimSun-ExtG, SimSun-ExtG;
        font-size: 40px;
      }
    </style>
  </defs>
  <text class="cls-1" transform="translate(0 59.75)"><tspan x="0" y="0" xml:space="preserve">MI   GRIMENSOR</tspan></text>
  <path d="M59.84,39c-.6,0-1,.4-1,1s.4,1,1,1h5.7l-5.4,14.6c-.1.2-.1.4,0,.5l1.8,8.9c.1.4.5.8.9.8h.1c.4,0,.8-.3.9-.7l8.9-24.1h8.5l8.9,24.4c.1.4.5.7.9.7h.1c.4,0,.8-.4.9-.8,1.8-9.2,1.9-9,1.8-9.5l-5.3-14.8h6.9c.6,0,1-.4,1-1s-.4-1-1-1h-7.6l-5.6-15.4c1.2-1.3,1.9-3,1.9-4.8,0-2-.9-3.9-2.3-5.2V4.6c-.1-2.5-2.2-4.6-4.8-4.6s-4.6,2.1-4.6,4.6v9c-1.5,1.3-2.3,3.2-2.3,5.2,0,1.8.7,3.5,1.9,4.8l-5.7,15.4h-6.5ZM63.24,61.2l-1-5.2,11.4-31.1c.4.2,1.5.7,2.1.8l.3.8-12.8,34.7ZM73.54,39l3.5-9.6,3.5,9.6h-7ZM90.94,61.3l-12.8-34.8.3-.8c.5-.1,1.6-.5,2.1-.8l11.5,31.2-1.1,5.2ZM74.44,4.6c0-1.4,1.2-2.6,2.6-2.6s2.6,1.2,2.6,2.6v7.7c-1.7-.7-3.6-.7-5.3,0v-7.7h.1ZM80.14,14.9c1.2.9,1.9,2.4,1.9,3.9,0,2.6-2,4.7-4.5,5-3.3.2-5.5-2.2-5.5-5,0-4.2,4.9-6.4,8.1-3.9Z"/>
</svg>